<mxfile host="app.diagrams.net" modified="2024-05-15T03:06:55.994Z" agent="Mozilla/5.0 (Windows NT 10.0; Win64; x64) AppleWebKit/537.36 (KHTML, like Gecko) Chrome/124.0.0.0 Safari/537.36" etag="SJyC8BzKVktnjKBjvN-a" version="24.4.0" type="google">
  <diagram name="Page-1" id="kBBaxtuq-Ik3DN5-WXsH">
    <mxGraphModel grid="1" page="1" gridSize="10" guides="1" tooltips="1" connect="1" arrows="1" fold="1" pageScale="1" pageWidth="850" pageHeight="1100" math="0" shadow="0">
      <root>
        <mxCell id="0" />
        <mxCell id="1" parent="0" />
        <mxCell id="eKqaJL-p2dGREHbQ5xIL-1" value="&amp;lt;&amp;lt;device&amp;gt;&amp;gt;&lt;br&gt;&lt;b&gt;:Web Client&lt;/b&gt;" style="verticalAlign=top;align=center;shape=cube;size=10;direction=south;fontStyle=0;html=1;boundedLbl=1;spacingLeft=5;whiteSpace=wrap;" vertex="1" parent="1">
          <mxGeometry x="-50" y="170" width="250" height="260" as="geometry" />
        </mxCell>
        <mxCell id="eKqaJL-p2dGREHbQ5xIL-2" value="&amp;lt;&amp;lt;execution env&amp;gt;&amp;gt;&lt;br&gt;&lt;b&gt;:Browser&lt;/b&gt;" style="verticalAlign=top;align=center;shape=cube;size=10;direction=south;html=1;boundedLbl=1;spacingLeft=5;whiteSpace=wrap;" vertex="1" parent="eKqaJL-p2dGREHbQ5xIL-1">
          <mxGeometry width="220" height="200" relative="1" as="geometry">
            <mxPoint x="10" y="50" as="offset" />
          </mxGeometry>
        </mxCell>
        <mxCell id="eKqaJL-p2dGREHbQ5xIL-9" value="" style="shape=image;html=1;verticalAlign=top;verticalLabelPosition=bottom;labelBackgroundColor=#ffffff;imageAspect=0;aspect=fixed;image=https://cdn1.iconfinder.com/data/icons/bootstrap-vol-3/16/filetype-html-128.png" vertex="1" parent="eKqaJL-p2dGREHbQ5xIL-1">
          <mxGeometry x="83.33333333333333" y="136.8466666666667" width="68.42105263157895" height="68.42105263157895" as="geometry" />
        </mxCell>
        <mxCell id="eKqaJL-p2dGREHbQ5xIL-12" value="&amp;lt;&amp;lt;device&amp;gt;&amp;gt;&lt;br&gt;&lt;b&gt;:Web Server&lt;/b&gt;" style="verticalAlign=top;align=center;shape=cube;size=10;direction=south;fontStyle=0;html=1;boundedLbl=1;spacingLeft=5;whiteSpace=wrap;container=0;" vertex="1" parent="1">
          <mxGeometry x="360" y="20" width="810" height="570" as="geometry" />
        </mxCell>
        <mxCell id="eKqaJL-p2dGREHbQ5xIL-15" value="&amp;lt;&amp;lt;execution env&amp;gt;&amp;gt;&lt;br&gt;&lt;b&gt;PHP&lt;/b&gt;&lt;br&gt;&lt;br&gt;&lt;div&gt;&lt;b&gt;&lt;br&gt;&lt;/b&gt;&lt;/div&gt;" style="verticalAlign=top;align=center;shape=cube;size=10;direction=south;fontStyle=0;html=1;boundedLbl=1;spacingLeft=5;whiteSpace=wrap;container=0;" vertex="1" parent="1">
          <mxGeometry x="380" y="70" width="740" height="490" as="geometry" />
        </mxCell>
        <mxCell id="eKqaJL-p2dGREHbQ5xIL-19" value="" style="group" connectable="0" vertex="1" parent="1">
          <mxGeometry x="650" y="150" width="270" height="180" as="geometry" />
        </mxCell>
        <mxCell id="eKqaJL-p2dGREHbQ5xIL-20" value="" style="group" connectable="0" vertex="1" parent="eKqaJL-p2dGREHbQ5xIL-19">
          <mxGeometry width="270" height="180" as="geometry" />
        </mxCell>
        <mxCell id="eKqaJL-p2dGREHbQ5xIL-16" value="Presentation Layer&lt;br&gt;&lt;br&gt;&lt;div&gt;&lt;b&gt;&lt;br&gt;&lt;/b&gt;&lt;/div&gt;" style="verticalAlign=top;align=center;shape=cube;size=10;direction=south;fontStyle=0;html=1;boundedLbl=1;spacingLeft=5;whiteSpace=wrap;container=0;" vertex="1" parent="eKqaJL-p2dGREHbQ5xIL-20">
          <mxGeometry y="-20" width="270" height="200" as="geometry" />
        </mxCell>
        <mxCell id="eKqaJL-p2dGREHbQ5xIL-17" value="«artifact»&lt;br&gt;&lt;b&gt;Controllers&lt;/b&gt;" style="html=1;dropTarget=0;whiteSpace=wrap;" vertex="1" parent="eKqaJL-p2dGREHbQ5xIL-20">
          <mxGeometry x="40.24" y="100" width="179.52" height="63.08" as="geometry" />
        </mxCell>
        <mxCell id="eKqaJL-p2dGREHbQ5xIL-18" value="" style="shape=module;jettyWidth=8;jettyHeight=4;" vertex="1" parent="eKqaJL-p2dGREHbQ5xIL-17">
          <mxGeometry x="1" width="20" height="20" relative="1" as="geometry">
            <mxPoint x="-27" y="7" as="offset" />
          </mxGeometry>
        </mxCell>
        <mxCell id="6p4y_OU24qNCVYj4gWND-5" value="«artifact»&lt;br&gt;&lt;b&gt;View (UI Component)&lt;/b&gt;" style="html=1;dropTarget=0;whiteSpace=wrap;" vertex="1" parent="eKqaJL-p2dGREHbQ5xIL-20">
          <mxGeometry x="40.24" y="30" width="179.76" height="63.08" as="geometry" />
        </mxCell>
        <mxCell id="6p4y_OU24qNCVYj4gWND-6" value="" style="shape=module;jettyWidth=8;jettyHeight=4;" vertex="1" parent="6p4y_OU24qNCVYj4gWND-5">
          <mxGeometry x="1" width="20" height="20" relative="1" as="geometry">
            <mxPoint x="-27" y="7" as="offset" />
          </mxGeometry>
        </mxCell>
        <mxCell id="eKqaJL-p2dGREHbQ5xIL-21" value="" style="group" connectable="0" vertex="1" parent="1">
          <mxGeometry x="425" y="390" width="235" height="150" as="geometry" />
        </mxCell>
        <mxCell id="eKqaJL-p2dGREHbQ5xIL-22" value="Business Logic Layer&lt;br&gt;&lt;br&gt;&lt;div&gt;&lt;b&gt;&lt;br&gt;&lt;/b&gt;&lt;/div&gt;" style="verticalAlign=top;align=center;shape=cube;size=10;direction=south;fontStyle=0;html=1;boundedLbl=1;spacingLeft=5;whiteSpace=wrap;container=0;" vertex="1" parent="eKqaJL-p2dGREHbQ5xIL-21">
          <mxGeometry width="235" height="150" as="geometry" />
        </mxCell>
        <mxCell id="eKqaJL-p2dGREHbQ5xIL-23" value="«artifact»&lt;br&gt;&lt;b&gt;Services&lt;/b&gt;" style="html=1;dropTarget=0;whiteSpace=wrap;" vertex="1" parent="eKqaJL-p2dGREHbQ5xIL-21">
          <mxGeometry x="36.36732600732601" y="50.00064102564102" width="162.26190476190476" height="69.23076923076923" as="geometry" />
        </mxCell>
        <mxCell id="eKqaJL-p2dGREHbQ5xIL-24" value="" style="shape=module;jettyWidth=8;jettyHeight=4;" vertex="1" parent="eKqaJL-p2dGREHbQ5xIL-23">
          <mxGeometry x="1" width="20" height="20" relative="1" as="geometry">
            <mxPoint x="-27" y="7" as="offset" />
          </mxGeometry>
        </mxCell>
        <mxCell id="eKqaJL-p2dGREHbQ5xIL-35" value="" style="group" connectable="0" vertex="1" parent="1">
          <mxGeometry x="850" y="680" width="260" height="190" as="geometry" />
        </mxCell>
        <mxCell id="eKqaJL-p2dGREHbQ5xIL-32" value="&amp;lt;&amp;lt;device&amp;gt;&amp;gt;&lt;br&gt;&lt;b&gt;Database Server&lt;/b&gt;&lt;br&gt;&lt;br&gt;&lt;div&gt;&lt;b&gt;&lt;br&gt;&lt;/b&gt;&lt;/div&gt;" style="verticalAlign=top;align=center;shape=cube;size=10;direction=south;fontStyle=0;html=1;boundedLbl=1;spacingLeft=5;whiteSpace=wrap;container=0;" vertex="1" parent="eKqaJL-p2dGREHbQ5xIL-35">
          <mxGeometry width="260" height="182.4" as="geometry" />
        </mxCell>
        <mxCell id="eKqaJL-p2dGREHbQ5xIL-33" value="«database»&lt;br&gt;&lt;b&gt;MySQL Database&lt;/b&gt;" style="html=1;dropTarget=0;whiteSpace=wrap;" vertex="1" parent="eKqaJL-p2dGREHbQ5xIL-35">
          <mxGeometry x="52" y="68.4" width="156" height="68.4" as="geometry" />
        </mxCell>
        <mxCell id="eKqaJL-p2dGREHbQ5xIL-34" value="" style="shape=module;jettyWidth=8;jettyHeight=4;" vertex="1" parent="eKqaJL-p2dGREHbQ5xIL-33">
          <mxGeometry x="1" width="20" height="20" relative="1" as="geometry">
            <mxPoint x="-27" y="7" as="offset" />
          </mxGeometry>
        </mxCell>
        <mxCell id="eKqaJL-p2dGREHbQ5xIL-40" value="" style="group" connectable="0" vertex="1" parent="1">
          <mxGeometry x="400" y="-420" width="300" height="240" as="geometry" />
        </mxCell>
        <mxCell id="eKqaJL-p2dGREHbQ5xIL-25" value="&amp;lt;&amp;lt;device&amp;gt;&amp;gt;&lt;br&gt;&lt;b&gt;Websocket Server&lt;/b&gt;&lt;br&gt;&lt;br&gt;&lt;div&gt;&lt;b&gt;&lt;br&gt;&lt;/b&gt;&lt;/div&gt;" style="verticalAlign=top;align=center;shape=cube;size=10;direction=south;fontStyle=0;html=1;boundedLbl=1;spacingLeft=5;whiteSpace=wrap;container=0;" vertex="1" parent="eKqaJL-p2dGREHbQ5xIL-40">
          <mxGeometry width="300" height="240" as="geometry" />
        </mxCell>
        <mxCell id="eKqaJL-p2dGREHbQ5xIL-26" value="«artifact»&lt;br&gt;&lt;b&gt;Soketi API&lt;/b&gt;" style="html=1;dropTarget=0;whiteSpace=wrap;" vertex="1" parent="eKqaJL-p2dGREHbQ5xIL-40">
          <mxGeometry x="50" y="80" width="200" height="120" as="geometry" />
        </mxCell>
        <mxCell id="eKqaJL-p2dGREHbQ5xIL-27" value="" style="shape=module;jettyWidth=8;jettyHeight=4;" vertex="1" parent="eKqaJL-p2dGREHbQ5xIL-26">
          <mxGeometry x="1" width="20" height="20" relative="1" as="geometry">
            <mxPoint x="-27" y="7" as="offset" />
          </mxGeometry>
        </mxCell>
        <mxCell id="eKqaJL-p2dGREHbQ5xIL-41" value="" style="group" connectable="0" vertex="1" parent="1">
          <mxGeometry x="860" y="390" width="230" height="150" as="geometry" />
        </mxCell>
        <mxCell id="6p4y_OU24qNCVYj4gWND-28" style="rounded=0;orthogonalLoop=1;jettySize=auto;html=1;exitX=0.639;exitY=1.008;exitDx=0;exitDy=0;exitPerimeter=0;" edge="1" parent="eKqaJL-p2dGREHbQ5xIL-41" source="eKqaJL-p2dGREHbQ5xIL-42">
          <mxGeometry relative="1" as="geometry">
            <mxPoint x="-200" y="100" as="targetPoint" />
          </mxGeometry>
        </mxCell>
        <mxCell id="eKqaJL-p2dGREHbQ5xIL-42" value="Data Layer&lt;br&gt;&lt;br&gt;&lt;div&gt;&lt;b&gt;&lt;br&gt;&lt;/b&gt;&lt;/div&gt;" style="verticalAlign=top;align=center;shape=cube;size=10;direction=south;fontStyle=0;html=1;boundedLbl=1;spacingLeft=5;whiteSpace=wrap;container=0;" vertex="1" parent="eKqaJL-p2dGREHbQ5xIL-41">
          <mxGeometry x="8.846153846153847" width="230" height="150" as="geometry" />
        </mxCell>
        <mxCell id="eKqaJL-p2dGREHbQ5xIL-43" value="«artifact»&lt;br&gt;&lt;b&gt;Models&lt;/b&gt;" style="html=1;dropTarget=0;whiteSpace=wrap;" vertex="1" parent="eKqaJL-p2dGREHbQ5xIL-41">
          <mxGeometry x="35.59355311355311" y="50.00064102564102" width="158.8095238095238" height="69.23076923076923" as="geometry" />
        </mxCell>
        <mxCell id="eKqaJL-p2dGREHbQ5xIL-44" value="" style="shape=module;jettyWidth=8;jettyHeight=4;" vertex="1" parent="eKqaJL-p2dGREHbQ5xIL-43">
          <mxGeometry x="1" width="20" height="20" relative="1" as="geometry">
            <mxPoint x="-27" y="7" as="offset" />
          </mxGeometry>
        </mxCell>
        <mxCell id="6p4y_OU24qNCVYj4gWND-1" value="" style="group" connectable="0" vertex="1" parent="1">
          <mxGeometry x="500" y="680" width="260" height="190" as="geometry" />
        </mxCell>
        <mxCell id="6p4y_OU24qNCVYj4gWND-2" value="&amp;lt;&amp;lt;device&amp;gt;&amp;gt;&lt;br&gt;&lt;b&gt;AI Service Server&lt;/b&gt;&lt;br&gt;&lt;br&gt;&lt;div&gt;&lt;b&gt;&lt;br&gt;&lt;/b&gt;&lt;/div&gt;" style="verticalAlign=top;align=center;shape=cube;size=10;direction=south;fontStyle=0;html=1;boundedLbl=1;spacingLeft=5;whiteSpace=wrap;container=0;" vertex="1" parent="6p4y_OU24qNCVYj4gWND-1">
          <mxGeometry width="260" height="190" as="geometry" />
        </mxCell>
        <mxCell id="6p4y_OU24qNCVYj4gWND-3" value="«server»&lt;br&gt;&lt;b&gt;Flask API&lt;/b&gt;" style="html=1;dropTarget=0;whiteSpace=wrap;" vertex="1" parent="6p4y_OU24qNCVYj4gWND-1">
          <mxGeometry x="52" y="71.25" width="156" height="71.25" as="geometry" />
        </mxCell>
        <mxCell id="6p4y_OU24qNCVYj4gWND-4" value="" style="shape=module;jettyWidth=8;jettyHeight=4;" vertex="1" parent="6p4y_OU24qNCVYj4gWND-3">
          <mxGeometry x="1" width="20" height="20" relative="1" as="geometry">
            <mxPoint x="-27" y="7" as="offset" />
          </mxGeometry>
        </mxCell>
        <mxCell id="6p4y_OU24qNCVYj4gWND-8" style="rounded=0;orthogonalLoop=1;jettySize=auto;html=1;exitX=0.351;exitY=0.001;exitDx=0;exitDy=0;exitPerimeter=0;endArrow=none;endFill=0;" edge="1" parent="1" source="eKqaJL-p2dGREHbQ5xIL-2">
          <mxGeometry relative="1" as="geometry">
            <mxPoint x="360" y="280" as="targetPoint" />
          </mxGeometry>
        </mxCell>
        <mxCell id="6p4y_OU24qNCVYj4gWND-10" value="HTTPS" style="edgeLabel;html=1;align=center;verticalAlign=middle;resizable=0;points=[];" connectable="0" vertex="1" parent="6p4y_OU24qNCVYj4gWND-8">
          <mxGeometry x="-0.0713" y="-2" relative="1" as="geometry">
            <mxPoint x="7" y="2" as="offset" />
          </mxGeometry>
        </mxCell>
        <mxCell id="6p4y_OU24qNCVYj4gWND-11" style="rounded=0;orthogonalLoop=1;jettySize=auto;html=1;endArrow=none;endFill=0;exitX=1;exitY=0.739;exitDx=0;exitDy=0;exitPerimeter=0;" edge="1" parent="1" source="eKqaJL-p2dGREHbQ5xIL-25">
          <mxGeometry relative="1" as="geometry">
            <mxPoint x="150" y="20" as="sourcePoint" />
            <mxPoint x="100" y="180" as="targetPoint" />
          </mxGeometry>
        </mxCell>
        <mxCell id="6p4y_OU24qNCVYj4gWND-12" value="Websocket" style="edgeLabel;html=1;align=center;verticalAlign=middle;resizable=0;points=[];" connectable="0" vertex="1" parent="6p4y_OU24qNCVYj4gWND-11">
          <mxGeometry x="0.1474" relative="1" as="geometry">
            <mxPoint as="offset" />
          </mxGeometry>
        </mxCell>
        <mxCell id="6p4y_OU24qNCVYj4gWND-13" style="rounded=0;orthogonalLoop=1;jettySize=auto;html=1;exitX=0;exitY=0;exitDx=150;exitDy=120;exitPerimeter=0;endArrow=none;endFill=0;" edge="1" parent="1" source="eKqaJL-p2dGREHbQ5xIL-42" target="eKqaJL-p2dGREHbQ5xIL-32">
          <mxGeometry relative="1" as="geometry" />
        </mxCell>
        <mxCell id="6p4y_OU24qNCVYj4gWND-15" value="TCP/IP" style="edgeLabel;html=1;align=center;verticalAlign=middle;resizable=0;points=[];" connectable="0" vertex="1" parent="6p4y_OU24qNCVYj4gWND-13">
          <mxGeometry x="0.2484" y="-2" relative="1" as="geometry">
            <mxPoint as="offset" />
          </mxGeometry>
        </mxCell>
        <mxCell id="eKqaJL-p2dGREHbQ5xIL-39" value="" style="group" connectable="0" vertex="1" parent="1">
          <mxGeometry x="180" y="680" width="260" height="180" as="geometry" />
        </mxCell>
        <mxCell id="eKqaJL-p2dGREHbQ5xIL-29" value="&amp;lt;&amp;lt;device&amp;gt;&amp;gt;&lt;br&gt;&lt;b&gt;PDF Generation Server&lt;/b&gt;&lt;br&gt;&lt;br&gt;&lt;div&gt;&lt;b&gt;&lt;br&gt;&lt;/b&gt;&lt;/div&gt;" style="verticalAlign=top;align=center;shape=cube;size=10;direction=south;fontStyle=0;html=1;boundedLbl=1;spacingLeft=5;whiteSpace=wrap;container=0;" vertex="1" parent="eKqaJL-p2dGREHbQ5xIL-39">
          <mxGeometry width="260" height="180" as="geometry" />
        </mxCell>
        <mxCell id="eKqaJL-p2dGREHbQ5xIL-30" value="«artifact»&lt;br&gt;&lt;b&gt;Gotenberg API&lt;/b&gt;" style="html=1;dropTarget=0;whiteSpace=wrap;" vertex="1" parent="eKqaJL-p2dGREHbQ5xIL-39">
          <mxGeometry x="52" y="67.5" width="156" height="67.5" as="geometry" />
        </mxCell>
        <mxCell id="eKqaJL-p2dGREHbQ5xIL-31" value="" style="shape=module;jettyWidth=8;jettyHeight=4;" vertex="1" parent="eKqaJL-p2dGREHbQ5xIL-30">
          <mxGeometry x="1" width="20" height="20" relative="1" as="geometry">
            <mxPoint x="-27" y="7" as="offset" />
          </mxGeometry>
        </mxCell>
        <mxCell id="6p4y_OU24qNCVYj4gWND-17" style="rounded=0;orthogonalLoop=1;jettySize=auto;html=1;exitX=0;exitY=0;exitDx=0;exitDy=145;exitPerimeter=0;entryX=0.992;entryY=0.276;entryDx=0;entryDy=0;entryPerimeter=0;endArrow=none;endFill=0;" edge="1" parent="1" source="6p4y_OU24qNCVYj4gWND-2" target="eKqaJL-p2dGREHbQ5xIL-22">
          <mxGeometry relative="1" as="geometry" />
        </mxCell>
        <mxCell id="6p4y_OU24qNCVYj4gWND-18" value="HTTPS" style="edgeLabel;html=1;align=center;verticalAlign=middle;resizable=0;points=[];" connectable="0" vertex="1" parent="6p4y_OU24qNCVYj4gWND-17">
          <mxGeometry x="-0.1819" relative="1" as="geometry">
            <mxPoint y="1" as="offset" />
          </mxGeometry>
        </mxCell>
        <mxCell id="6p4y_OU24qNCVYj4gWND-19" style="rounded=0;orthogonalLoop=1;jettySize=auto;html=1;exitX=0;exitY=0;exitDx=150;exitDy=122.5;exitPerimeter=0;entryX=-0.002;entryY=0.292;entryDx=0;entryDy=0;entryPerimeter=0;endArrow=none;endFill=0;" edge="1" parent="1" source="eKqaJL-p2dGREHbQ5xIL-22" target="eKqaJL-p2dGREHbQ5xIL-29">
          <mxGeometry relative="1" as="geometry" />
        </mxCell>
        <mxCell id="6p4y_OU24qNCVYj4gWND-20" value="HTTPS" style="edgeLabel;html=1;align=center;verticalAlign=middle;resizable=0;points=[];" connectable="0" vertex="1" parent="6p4y_OU24qNCVYj4gWND-19">
          <mxGeometry x="0.1915" y="3" relative="1" as="geometry">
            <mxPoint y="-1" as="offset" />
          </mxGeometry>
        </mxCell>
        <mxCell id="6p4y_OU24qNCVYj4gWND-23" style="rounded=0;orthogonalLoop=1;jettySize=auto;html=1;exitX=0;exitY=0;exitDx=0;exitDy=400;exitPerimeter=0;entryX=0.995;entryY=0.395;entryDx=0;entryDy=0;entryPerimeter=0;endArrow=none;endFill=0;" edge="1" parent="1" source="eKqaJL-p2dGREHbQ5xIL-12" target="eKqaJL-p2dGREHbQ5xIL-25">
          <mxGeometry relative="1" as="geometry" />
        </mxCell>
        <mxCell id="6p4y_OU24qNCVYj4gWND-24" value="HTTPS" style="edgeLabel;html=1;align=center;verticalAlign=middle;resizable=0;points=[];" connectable="0" vertex="1" parent="6p4y_OU24qNCVYj4gWND-23">
          <mxGeometry x="0.0882" y="1" relative="1" as="geometry">
            <mxPoint x="1" as="offset" />
          </mxGeometry>
        </mxCell>
        <mxCell id="6p4y_OU24qNCVYj4gWND-25" style="rounded=0;orthogonalLoop=1;jettySize=auto;html=1;exitX=0;exitY=0;exitDx=105;exitDy=270;exitPerimeter=0;entryX=0.016;entryY=0.821;entryDx=0;entryDy=0;entryPerimeter=0;" edge="1" parent="1" source="eKqaJL-p2dGREHbQ5xIL-16" target="eKqaJL-p2dGREHbQ5xIL-22">
          <mxGeometry relative="1" as="geometry" />
        </mxCell>
        <mxCell id="6p4y_OU24qNCVYj4gWND-26" style="rounded=0;orthogonalLoop=1;jettySize=auto;html=1;exitX=0.016;exitY=0.627;exitDx=0;exitDy=0;exitPerimeter=0;entryX=0.733;entryY=0.992;entryDx=0;entryDy=0;entryPerimeter=0;" edge="1" parent="1" source="eKqaJL-p2dGREHbQ5xIL-22" target="eKqaJL-p2dGREHbQ5xIL-16">
          <mxGeometry relative="1" as="geometry">
            <mxPoint x="610" y="290" as="targetPoint" />
          </mxGeometry>
        </mxCell>
        <mxCell id="6p4y_OU24qNCVYj4gWND-27" style="rounded=0;orthogonalLoop=1;jettySize=auto;html=1;entryX=0.434;entryY=1.002;entryDx=0;entryDy=0;entryPerimeter=0;" edge="1" parent="1" target="eKqaJL-p2dGREHbQ5xIL-42">
          <mxGeometry relative="1" as="geometry">
            <mxPoint x="660" y="460" as="sourcePoint" />
          </mxGeometry>
        </mxCell>
      </root>
    </mxGraphModel>
  </diagram>
</mxfile>
